<?xml version="1.0" standalone="no"?><!DOCTYPE svg PUBLIC "-//W3C//DTD SVG 1.1//EN" "http://www.w3.org/Graphics/SVG/1.1/DTD/svg11.dtd"><svg t="1726658186734" class="icon" viewBox="0 0 1024 1024" version="1.1" xmlns="http://www.w3.org/2000/svg" p-id="3141" xmlns:xlink="http://www.w3.org/1999/xlink" width="64" height="64"><path d="M853.333333 181.333333a32 32 0 1 1 0 64H170.666667a32 32 0 0 1 0-64h682.666666z m0 199.125334a32 32 0 1 1 0 64h-341.333333a32 32 0 0 1 0-64h341.333333z m0 199.082666a32 32 0 0 1 0 64h-341.333333a32 32 0 1 1 0-64h341.333333z m0 199.125334a32 32 0 1 1 0 64H170.666667a32 32 0 1 1 0-64h682.666666zM324.394667 378.197333A32 32 0 0 1 373.333333 405.333333v213.333334a32 32 0 0 1-48.938666 27.136l-170.666667-106.666667a32 32 0 0 1 0-54.272l170.666667-106.666667z m-15.061334 84.821334L230.997333 512l78.336 48.938667v-97.92z" p-id="3142"></path></svg>